<?xml version="1.0" standalone="no"?>
<!DOCTYPE svg PUBLIC "-//W3C//DTD SVG 20010904//EN"
 "http://www.w3.org/TR/2001/REC-SVG-20010904/DTD/svg10.dtd">
<svg version="1.0" xmlns="http://www.w3.org/2000/svg"
 width="512.000000pt" height="512.000000pt" viewBox="0 0 512.000000 512.000000"
 preserveAspectRatio="xMidYMid meet">

<g transform="translate(0.000000,512.000000) scale(0.100000,-0.100000)"
fill="#000000" stroke="none">
<path d="M2315 5109 c-800 -83 -1501 -518 -1927 -1196 -487 -774 -516 -1777
-75 -2578 200 -364 487 -676 841 -913 238 -159 600 -311 876 -366 214 -43 295
-51 530 -51 236 0 333 10 532 51 880 184 1615 842 1898 1702 92 278 125 491
125 802 0 301 -32 513 -116 775 -124 390 -330 728 -622 1024 -399 404 -893
653 -1462 737 -123 18 -478 26 -600 13z m-1395 -2272 c45 -22 70 -63 70 -116
l0 -41 -70 0 -70 0 0 29 c0 16 -6 34 -14 40 -19 16 -66 10 -79 -10 -20 -32 0
-64 64 -100 148 -83 184 -124 183 -208 -2 -117 -61 -166 -199 -166 -134 0
-199 48 -200 148 l0 52 73 3 72 3 0 -37 c0 -61 41 -90 91 -64 13 7 19 21 19
44 0 40 -25 65 -123 120 -75 41 -126 95 -129 134 -7 137 56 196 207 189 40 -2
85 -10 105 -20z m1819 -2 c44 -22 64 -52 69 -105 l5 -50 -72 0 -71 0 0 28 c0
35 -16 52 -50 52 -32 0 -50 -17 -50 -47 0 -29 25 -51 111 -98 39 -22 86 -56
105 -77 31 -35 34 -43 34 -104 0 -50 -5 -75 -20 -100 -59 -94 -296 -91 -353 5
-9 16 -18 51 -19 78 l-3 48 73 3 72 3 0 -36 c0 -59 51 -93 94 -62 12 9 17 23
14 47 -3 37 -27 58 -147 132 -72 44 -101 86 -101 146 0 83 39 130 126 151 48
12 149 4 183 -14z m1700 -3 c48 -24 70 -58 78 -120 l6 -52 -70 0 -70 0 -7 40
c-5 31 -12 43 -32 50 -35 14 -41 13 -64 -10 -18 -18 -20 -33 -20 -179 0 -154
1 -160 22 -175 53 -37 98 -3 98 74 0 49 -1 50 -30 50 -29 0 -30 2 -30 45 l0
45 101 0 101 0 -3 -114 c-4 -96 -7 -119 -25 -143 -34 -47 -89 -68 -174 -68
-85 0 -140 21 -174 68 -19 26 -21 45 -24 199 -4 192 6 241 58 278 59 42 187
48 259 12z m-2980 -44 c19 -91 91 -488 91 -498 0 -6 -32 -10 -75 -10 -53 0
-75 4 -75 13 0 20 -69 480 -73 483 -2 2 -11 -47 -20 -109 -10 -61 -27 -174
-38 -249 l-22 -138 -73 0 c-41 0 -74 4 -74 9 0 9 72 401 91 499 l10 52 124 0
124 0 10 -52z m481 -160 c19 -116 36 -206 38 -199 2 7 18 101 36 209 l31 197
118 3 117 3 0 -198 c0 -109 3 -235 7 -280 l6 -83 -72 0 -71 0 -1 138 c-1 75
-4 183 -8 240 l-6 103 -44 -241 -44 -241 -71 3 -71 3 -47 245 -46 245 -1 -232
c-1 -127 -4 -238 -7 -247 -5 -12 -21 -16 -70 -16 l-64 0 0 213 c0 116 3 242 7
280 l6 67 112 0 111 0 34 -212z m1160 -11 c0 -240 2 -247 51 -247 54 0 59 22
59 257 l0 213 70 0 70 0 0 -222 c0 -199 -3 -228 -20 -266 -26 -58 -78 -81
-179 -82 -90 0 -147 23 -176 72 -17 30 -20 57 -23 266 l-4 232 76 0 76 0 0
-223z m675 9 l60 -209 3 211 2 212 65 0 65 0 0 -275 0 -275 -98 0 -99 0 -68
225 c-37 124 -69 225 -71 225 -1 0 0 -101 4 -225 l5 -225 -71 0 -72 0 0 275 0
276 107 -3 107 -3 61 -209z"/>
</g>
</svg>
